ply
format ascii 1.0
element vertex 231
property float x
property float y
property float z
element face 200
property list uchar int vertex_indices
end_header
0 20 0
0 20 0
0 20 0
0 20 0
0 20 0
-0 20 0
-0 20 0
-0 20 0
-0 20 0
-0 20 0
-0 20 -0
-0 20 -0
-0 20 -0
-0 20 -0
-0 20 -0
0 20 -0
0 20 -0
0 20 -0
0 20 -0
0 20 -0
0 20 0
6.18034 19.0211 0
5.87785 19.0211 1.90983
5 19.0211 3.63271
3.63271 19.0211 5
1.90983 19.0211 5.87785
-2.70151e-07 19.0211 6.18034
-1.90983 19.0211 5.87785
-3.63271 19.0211 5
-5 19.0211 3.63271
-5.87785 19.0211 1.90983
-6.18034 19.0211 -5.40302e-07
-5.87785 19.0211 -1.90983
-5 19.0211 -3.63271
-3.63271 19.0211 -5
-1.90983 19.0211 -5.87785
7.36998e-08 19.0211 -6.18034
1.90983 19.0211 -5.87785
3.63271 19.0211 -5
5 19.0211 -3.63271
5.87785 19.0211 -1.90983
6.18034 19.0211 1.0806e-06
11.7557 16.1803 0
11.1803 16.1803 3.63271
9.51056 16.1803 6.90983
6.90983 16.1803 9.51056
3.63271 16.1803 11.1803
-5.13858e-07 16.1803 11.7557
-3.63271 16.1803 11.1803
-6.90983 16.1803 9.51056
-9.51057 16.1803 6.90983
-11.1803 16.1803 3.63271
-11.7557 16.1803 -1.02772e-06
-11.1803 16.1803 -3.63271
-9.51056 16.1803 -6.90983
-6.90983 16.1803 -9.51057
-3.63271 16.1803 -11.1803
1.40185e-07 16.1803 -11.7557
3.63271 16.1803 -11.1803
6.90983 16.1803 -9.51057
9.51056 16.1803 -6.90983
11.1803 16.1803 -3.63271
11.7557 16.1803 2.05543e-06
16.1803 11.7557 0
15.3884 11.7557 5
13.0902 11.7557 9.51056
9.51056 11.7557 13.0902
5 11.7557 15.3884
-7.07265e-07 11.7557 16.1803
-5 11.7557 15.3884
-9.51056 11.7557 13.0902
-13.0902 11.7557 9.51056
-15.3884 11.7557 5
-16.1803 11.7557 -1.41453e-06
-15.3884 11.7557 -5
-13.0902 11.7557 -9.51057
-9.51056 11.7557 -13.0902
-5 11.7557 -15.3884
1.92949e-07 11.7557 -16.1803
5 11.7557 -15.3884
9.51056 11.7557 -13.0902
13.0902 11.7557 -9.51057
15.3884 11.7557 -5
16.1803 11.7557 2.82906e-06
19.0211 6.18034 0
18.0902 6.18034 5.87785
15.3884 6.18034 11.1803
11.1803 6.18034 15.3884
5.87785 6.18034 18.0902
-8.3144e-07 6.18034 19.0211
-5.87785 6.18034 18.0902
-11.1803 6.18034 15.3884
-15.3884 6.18034 11.1803
-18.0902 6.18034 5.87785
-19.0211 6.18034 -1.66288e-06
-18.0902 6.18034 -5.87785
-15.3884 6.18034 -11.1803
-11.1803 6.18034 -15.3884
-5.87785 6.18034 -18.0902
2.26825e-07 6.18034 -19.0211
5.87786 6.18034 -18.0902
11.1803 6.18034 -15.3884
15.3884 6.18034 -11.1803
18.0902 6.18034 -5.87785
19.0211 6.18034 3.32576e-06
20 -8.74228e-07 0
19.0211 -8.74228e-07 6.18034
16.1803 -8.74228e-07 11.7557
11.7557 -8.74228e-07 16.1803
6.18034 -8.74228e-07 19.0211
-8.74228e-07 -8.74228e-07 20
-6.18034 -8.74228e-07 19.0211
-11.7557 -8.74228e-07 16.1803
-16.1803 -8.74228e-07 11.7557
-19.0211 -8.74228e-07 6.18034
-20 -8.74228e-07 -1.74846e-06
-19.0211 -8.74228e-07 -6.18034
-16.1803 -8.74228e-07 -11.7557
-11.7557 -8.74228e-07 -16.1803
-6.18034 -8.74228e-07 -19.0211
2.38498e-07 -8.74228e-07 -20
6.18034 -8.74228e-07 -19.0211
11.7557 -8.74228e-07 -16.1803
16.1803 -8.74228e-07 -11.7557
19.0211 -8.74228e-07 -6.18034
20 -8.74228e-07 3.49691e-06
19.0211 -6.18034 0
18.0902 -6.18034 5.87785
15.3884 -6.18034 11.1803
11.1803 -6.18034 15.3884
5.87785 -6.18034 18.0902
-8.3144e-07 -6.18034 19.0211
-5.87785 -6.18034 18.0902
-11.1803 -6.18034 15.3884
-15.3884 -6.18034 11.1803
-18.0902 -6.18034 5.87785
-19.0211 -6.18034 -1.66288e-06
-18.0902 -6.18034 -5.87785
-15.3884 -6.18034 -11.1803
-11.1803 -6.18034 -15.3884
-5.87785 -6.18034 -18.0902
2.26825e-07 -6.18034 -19.0211
5.87785 -6.18034 -18.0902
11.1803 -6.18034 -15.3884
15.3884 -6.18034 -11.1803
18.0902 -6.18034 -5.87785
19.0211 -6.18034 3.32576e-06
16.1803 -11.7557 0
15.3884 -11.7557 5
13.0902 -11.7557 9.51056
9.51056 -11.7557 13.0902
5 -11.7557 15.3884
-7.07265e-07 -11.7557 16.1803
-5 -11.7557 15.3884
-9.51056 -11.7557 13.0902
-13.0902 -11.7557 9.51056
-15.3884 -11.7557 5
-16.1803 -11.7557 -1.41453e-06
-15.3884 -11.7557 -5
-13.0902 -11.7557 -9.51057
-9.51056 -11.7557 -13.0902
-5 -11.7557 -15.3884
1.92949e-07 -11.7557 -16.1803
5 -11.7557 -15.3884
9.51056 -11.7557 -13.0902
13.0902 -11.7557 -9.51057
15.3884 -11.7557 -5
16.1803 -11.7557 2.82906e-06
11.7557 -16.1803 0
11.1803 -16.1803 3.63271
9.51056 -16.1803 6.90983
6.90983 -16.1803 9.51056
3.63271 -16.1803 11.1803
-5.13858e-07 -16.1803 11.7557
-3.63271 -16.1803 11.1803
-6.90983 -16.1803 9.51056
-9.51056 -16.1803 6.90983
-11.1803 -16.1803 3.63271
-11.7557 -16.1803 -1.02772e-06
-11.1803 -16.1803 -3.63271
-9.51056 -16.1803 -6.90983
-6.90983 -16.1803 -9.51056
-3.63271 -16.1803 -11.1803
1.40185e-07 -16.1803 -11.7557
3.63271 -16.1803 -11.1803
6.90983 -16.1803 -9.51056
9.51056 -16.1803 -6.90983
11.1803 -16.1803 -3.63271
11.7557 -16.1803 2.05543e-06
6.18034 -19.0211 0
5.87785 -19.0211 1.90983
5 -19.0211 3.63271
3.63271 -19.0211 5
1.90983 -19.0211 5.87785
-2.70151e-07 -19.0211 6.18034
-1.90983 -19.0211 5.87785
-3.63271 -19.0211 5
-5 -19.0211 3.63271
-5.87785 -19.0211 1.90983
-6.18034 -19.0211 -5.40303e-07
-5.87785 -19.0211 -1.90983
-5 -19.0211 -3.63271
-3.63271 -19.0211 -5
-1.90983 -19.0211 -5.87785
7.36998e-08 -19.0211 -6.18034
1.90983 -19.0211 -5.87785
3.63271 -19.0211 -5
5 -19.0211 -3.63271
5.87785 -19.0211 -1.90983
6.18034 -19.0211 1.08061e-06
-1.74846e-06 -20 -0
-1.66288e-06 -20 -5.40302e-07
-1.41453e-06 -20 -1.02772e-06
-1.02772e-06 -20 -1.41453e-06
-5.40302e-07 -20 -1.66288e-06
7.64274e-14 -20 -1.74846e-06
5.40303e-07 -20 -1.66288e-06
1.02772e-06 -20 -1.41453e-06
1.41453e-06 -20 -1.02772e-06
1.66288e-06 -20 -5.40303e-07
1.74846e-06 -20 1.52855e-13
1.66288e-06 -20 5.40302e-07
1.41453e-06 -20 1.02772e-06
1.02772e-06 -20 1.41453e-06
5.40303e-07 -20 1.66288e-06
-2.08501e-14 -20 1.74846e-06
-5.40303e-07 -20 1.66288e-06
-1.02772e-06 -20 1.41453e-06
-1.41453e-06 -20 1.02772e-06
-1.66288e-06 -20 5.40302e-07
-1.74846e-06 -20 -3.0571e-13
3 0 21 1
3 1 22 2
3 2 23 3
3 3 24 4
3 4 25 5
3 5 26 6
3 6 27 7
3 7 28 8
3 8 29 9
3 9 30 10
3 10 31 11
3 11 32 12
3 12 33 13
3 13 34 14
3 14 35 15
3 15 36 16
3 16 37 17
3 17 38 18
3 18 39 19
3 19 40 20
3 21 42 22
3 22 43 23
3 23 44 24
3 24 45 25
3 25 46 26
3 26 47 27
3 27 48 28
3 28 49 29
3 29 50 30
3 30 51 31
3 31 52 32
3 32 53 33
3 33 54 34
3 34 55 35
3 35 56 36
3 36 57 37
3 37 58 38
3 38 59 39
3 39 60 40
3 40 61 41
3 42 63 43
3 43 64 44
3 44 65 45
3 45 66 46
3 46 67 47
3 47 68 48
3 48 69 49
3 49 70 50
3 50 71 51
3 51 72 52
3 52 73 53
3 53 74 54
3 54 75 55
3 55 76 56
3 56 77 57
3 57 78 58
3 58 79 59
3 59 80 60
3 60 81 61
3 61 82 62
3 63 84 64
3 64 85 65
3 65 86 66
3 66 87 67
3 67 88 68
3 68 89 69
3 69 90 70
3 70 91 71
3 71 92 72
3 72 93 73
3 73 94 74
3 74 95 75
3 75 96 76
3 76 97 77
3 77 98 78
3 78 99 79
3 79 100 80
3 80 101 81
3 81 102 82
3 82 103 83
3 84 105 85
3 85 106 86
3 86 107 87
3 87 108 88
3 88 109 89
3 89 110 90
3 90 111 91
3 91 112 92
3 92 113 93
3 93 114 94
3 94 115 95
3 95 116 96
3 96 117 97
3 97 118 98
3 98 119 99
3 99 120 100
3 100 121 101
3 101 122 102
3 102 123 103
3 103 124 104
3 105 126 106
3 106 127 107
3 107 128 108
3 108 129 109
3 109 130 110
3 110 131 111
3 111 132 112
3 112 133 113
3 113 134 114
3 114 135 115
3 115 136 116
3 116 137 117
3 117 138 118
3 118 139 119
3 119 140 120
3 120 141 121
3 121 142 122
3 122 143 123
3 123 144 124
3 124 145 125
3 126 147 127
3 127 148 128
3 128 149 129
3 129 150 130
3 130 151 131
3 131 152 132
3 132 153 133
3 133 154 134
3 134 155 135
3 135 156 136
3 136 157 137
3 137 158 138
3 138 159 139
3 139 160 140
3 140 161 141
3 141 162 142
3 142 163 143
3 143 164 144
3 144 165 145
3 145 166 146
3 147 168 148
3 148 169 149
3 149 170 150
3 150 171 151
3 151 172 152
3 152 173 153
3 153 174 154
3 154 175 155
3 155 176 156
3 156 177 157
3 157 178 158
3 158 179 159
3 159 180 160
3 160 181 161
3 161 182 162
3 162 183 163
3 163 184 164
3 164 185 165
3 165 186 166
3 166 187 167
3 168 189 169
3 169 190 170
3 170 191 171
3 171 192 172
3 172 193 173
3 173 194 174
3 174 195 175
3 175 196 176
3 176 197 177
3 177 198 178
3 178 199 179
3 179 200 180
3 180 201 181
3 181 202 182
3 182 203 183
3 183 204 184
3 184 205 185
3 185 206 186
3 186 207 187
3 187 208 188
3 189 210 190
3 190 211 191
3 191 212 192
3 192 213 193
3 193 214 194
3 194 215 195
3 195 216 196
3 196 217 197
3 197 218 198
3 198 219 199
3 199 220 200
3 200 221 201
3 201 222 202
3 202 223 203
3 203 224 204
3 204 225 205
3 205 226 206
3 206 227 207
3 207 228 208
3 208 229 209
